<svg data-v-423bf9ae="" xmlns="http://www.w3.org/2000/svg" viewBox="0 0 485.8695978519334 163" class="iconAbove"><!----><!----><!----><g data-v-423bf9ae="" id="e9aef430-5a23-4e88-9e65-b8f502bbfc01" fill="black" transform="matrix(5.928853821986509,0,0,5.928853821986509,-0.5928797805977979,85.62846005155305)"><path d="M1.05 3.61L0.10 5.03L0.24 5.14Q0.60 4.83 3.11 4.96L3.11 4.96Q2.75 5.34 2.47 5.67L2.47 5.67L2.50 11.51Q2.75 12.56 3.61 12.74L3.61 12.74L4.76 11.70L4.66 11.46Q4.13 11.48 4.01 10.42L4.01 10.42L4.04 4.94L5.47 4.94L6.68 3.75L6.56 3.61L1.05 3.61ZM8.68 3.05L7.51 3.99Q7.68 4.34 7.70 4.93L7.70 4.93Q7.68 11.40 7.80 11.88Q7.92 12.37 8.29 12.81L8.29 12.81L9.73 11.46L9.73 11.29Q9.28 11.40 9.15 10.78Q9.03 10.17 9.11 8.27L9.11 8.27Q10.11 7.50 10.72 7.73Q11.32 7.96 11.31 9.39L11.31 9.39Q11.28 11.44 11.33 11.93Q11.38 12.42 11.92 12.78L11.92 12.78L13.30 11.53L13.30 11.35Q12.95 11.46 12.83 10.83Q12.71 10.20 12.78 8.76L12.78 8.76Q12.83 7.88 12.64 7.35Q12.45 6.82 11.83 6.58Q11.20 6.33 10.67 6.59Q10.14 6.85 9.79 7.14Q9.45 7.42 9.13 7.62L9.13 7.62L9.11 3.91Q9.02 3.32 8.68 3.05L8.68 3.05ZM16.79 6.60Q15.72 6.43 14.79 7.26Q13.86 8.09 13.60 9.20Q13.34 10.31 13.76 11.26Q14.18 12.22 15.33 12.62L15.33 12.62Q16.26 12.93 17.26 12.18Q18.27 11.43 18.58 10.77L18.58 10.77L18.38 10.61Q16.99 11.56 16.18 11.24Q15.36 10.92 15.22 10.51L15.22 10.51L16.70 9.54Q18.14 8.65 18.00 7.70Q17.86 6.76 16.79 6.60ZM14.70 8.64Q14.68 8.14 15.06 7.78Q15.43 7.41 16.04 7.78Q16.65 8.15 16.55 8.76Q16.45 9.37 15.01 10.14L15.01 10.14Q14.85 9.80 14.79 9.47Q14.72 9.14 14.70 8.64ZM23.16 3.64L21.60 4.98L21.67 5.20Q22.22 4.70 22.04 7.94L22.04 7.94L21.46 8.44Q21.67 8.67 22.06 8.98L22.06 8.98Q21.90 11.63 22.25 12.25Q22.60 12.88 23.19 13.05L23.19 13.05L24.45 11.74L24.32 11.50Q23.63 11.78 23.65 9.65L23.65 9.65Q24.27 9.91 25.16 9.44Q26.04 8.98 26.70 8.26Q27.36 7.54 27.52 6.72Q27.69 5.90 27.17 4.87Q26.65 3.84 25.11 3.55L25.11 3.55L23.73 4.86Q23.72 4.11 23.16 3.64L23.16 3.64ZM24.25 5.04Q25.25 5.16 25.78 6.22Q26.30 7.29 26.02 8.02Q25.74 8.74 24.98 8.68Q24.21 8.61 23.73 7.81L23.73 7.81L23.74 5.44L24.25 5.04ZM32.40 12.76L34.08 11.54L33.92 11.31Q33.47 11.40 33.47 10.68L33.47 10.68Q33.54 7.72 33.45 7.27Q33.36 6.82 32.79 6.47L32.79 6.47L31.34 7.72L31.40 7.85Q31.81 7.65 31.92 8.33Q32.04 9.02 31.96 10.91L31.96 10.91Q31.09 11.70 30.48 11.47Q29.88 11.25 29.89 9.81L29.89 9.81Q29.92 7.76 29.87 7.27Q29.83 6.78 29.29 6.42L29.29 6.42L27.86 7.69L27.99 7.85Q28.25 7.66 28.34 8.36Q28.43 9.07 28.38 10.51L28.38 10.51Q28.31 11.39 28.53 11.88Q28.75 12.38 29.37 12.63Q30.00 12.87 30.53 12.61Q31.06 12.35 31.41 12.07Q31.75 11.78 31.94 11.57L31.94 11.57Q31.88 12.41 32.40 12.76L32.40 12.76ZM35.82 2.93L34.41 3.90Q34.74 4.09 34.69 6.92Q34.63 9.76 34.72 10.51Q34.81 11.25 35.93 12.14Q37.05 13.02 37.87 12.50Q38.68 11.98 39.35 11.29Q40.01 10.60 40.18 9.51Q40.35 8.43 39.95 7.57Q39.56 6.71 38.41 6.51Q37.27 6.31 36.27 7.53L36.27 7.53Q36.35 3.88 36.15 3.42Q35.95 2.97 35.82 2.93L35.82 2.93ZM37.05 7.73Q37.58 7.65 38.07 8.03Q38.55 8.40 38.64 9.37Q38.73 10.34 38.25 11.52L38.25 11.52Q37.15 11.94 36.63 11.26Q36.11 10.58 36.31 8.12L36.31 8.12Q36.52 7.81 37.05 7.73ZM41.88 3.24L40.70 4.21Q40.87 4.54 40.90 5.11L40.90 5.11Q40.83 11.51 40.94 12.01Q41.05 12.50 41.58 12.81L41.58 12.81L43.33 11.55L43.13 11.33Q42.67 11.43 42.45 11.03Q42.23 10.62 42.30 4.07L42.30 4.07Q42.21 3.51 41.88 3.24L41.88 3.24ZM44.83 3.68L43.46 4.86Q44.10 5.30 44.43 5.91L44.43 5.91Q45.58 5.15 45.72 4.96Q45.86 4.76 45.64 4.31Q45.43 3.86 44.83 3.68L44.83 3.68ZM43.67 7.76Q44.26 7.43 44.06 9.23L44.06 9.23Q44.02 11.37 44.07 11.88Q44.12 12.39 44.68 12.72L44.68 12.72L46.04 11.45L46.05 11.27Q45.67 11.29 45.59 10.76Q45.50 10.23 45.54 8.94Q45.58 7.65 45.56 7.25Q45.54 6.85 45.19 6.45L45.19 6.45L43.57 7.57L43.67 7.76ZM49.28 6.62Q48.90 6.77 48.56 6.99Q48.23 7.21 47.87 7.49L47.87 7.49Q45.42 9.38 47.02 11.66L47.02 11.66Q47.47 12.21 47.93 12.45Q48.40 12.69 49.04 12.70Q49.69 12.70 50.37 12.07Q51.05 11.44 51.50 10.79L51.50 10.79L51.28 10.60Q51.11 10.82 50.83 11.07Q50.56 11.32 50.12 11.32Q49.69 11.33 49.18 10.99L49.18 10.99Q47.65 10.14 47.98 8.37L47.98 8.37Q48.17 7.62 49.02 7.85L49.02 7.85Q49.75 8.12 50.03 8.98L50.03 8.98L51.37 7.93Q51.35 7.33 50.92 7.00Q50.50 6.66 50.08 6.56Q49.66 6.47 49.28 6.62ZM59.98 3.57L58.54 4.49Q58.72 4.81 58.75 5.35L58.75 5.35L58.76 6.93L56.89 6.92L56.36 7.55L56.40 4.32Q56.30 3.78 55.94 3.53L55.94 3.53L54.50 4.45Q54.68 4.77 54.71 5.31L54.71 5.31Q54.64 11.44 54.76 11.91Q54.88 12.39 55.46 12.67L55.46 12.67L57.07 11.53L56.96 11.24Q56.60 11.34 56.46 10.96Q56.31 10.58 56.36 7.97L56.36 7.97L58.71 7.96Q58.68 11.47 58.80 11.95Q58.92 12.42 59.50 12.71L59.50 12.71L61.11 11.57L61.00 11.28Q60.64 11.38 60.50 11.00Q60.35 10.62 60.44 4.36L60.44 4.36Q60.34 3.82 59.98 3.57L59.98 3.57ZM63.75 6.49Q62.60 7.24 62.12 7.80Q61.65 8.35 61.46 8.92Q61.26 9.48 61.39 10.33Q61.52 11.18 62.38 11.96Q63.25 12.75 63.77 12.75Q64.29 12.76 65.41 11.74L65.41 11.74Q65.84 11.35 66.16 10.91Q66.49 10.47 66.64 9.67Q66.79 8.87 66.38 7.90L66.38 7.90Q65.34 6.30 63.75 6.49L63.75 6.49ZM63.52 7.70Q64.39 7.83 64.89 8.81Q65.40 9.79 65.23 10.78Q65.06 11.76 64.18 11.29Q63.30 10.81 62.86 10.00Q62.41 9.19 62.53 8.37Q62.65 7.56 63.52 7.70ZM68.69 6.42L67.01 7.64L67.17 7.87Q67.68 7.56 67.62 8.50L67.62 8.50Q67.55 11.46 67.64 11.91Q67.73 12.37 68.30 12.71L68.30 12.71L69.75 11.46L69.75 11.29Q69.30 11.40 69.17 10.78Q69.05 10.17 69.13 8.27L69.13 8.27Q70 7.48 70.60 7.71Q71.21 7.94 71.20 9.37L71.20 9.37Q71.17 11.42 71.22 11.91Q71.26 12.40 71.80 12.76L71.80 12.76L73.23 11.49L73.19 11.33Q72.71 11.46 72.73 8.27L72.73 8.27Q73.62 7.48 74.23 7.71Q74.83 7.94 74.83 9.37L74.83 9.37Q74.79 11.42 74.84 11.91Q74.89 12.40 75.43 12.76L75.43 12.76L76.85 11.49L76.82 11.33Q76.46 11.44 76.34 10.81Q76.23 10.18 76.30 8.74L76.30 8.74Q76.34 7.86 76.15 7.33Q75.96 6.80 75.34 6.56Q74.72 6.31 74.18 6.57Q73.65 6.83 73.31 7.10Q72.96 7.36 72.67 7.68L72.67 7.68Q72.67 7.53 72.50 7.16Q72.34 6.80 71.72 6.56Q71.09 6.31 70.56 6.57Q70.03 6.83 69.68 7.12Q69.34 7.40 69.15 7.62L69.15 7.62Q69.21 6.77 68.69 6.42L68.69 6.42ZM80.26 6.60Q79.19 6.43 78.26 7.26Q77.33 8.09 77.08 9.20Q76.82 10.31 77.24 11.26Q77.66 12.22 78.80 12.62L78.80 12.62Q79.73 12.93 80.73 12.18Q81.74 11.43 82.05 10.77L82.05 10.77L81.85 10.61Q80.47 11.56 79.65 11.24Q78.83 10.92 78.69 10.51L78.69 10.51L80.17 9.54Q81.61 8.65 81.47 7.70Q81.33 6.76 80.26 6.60ZM78.17 8.64Q78.16 8.14 78.53 7.78Q78.90 7.41 79.51 7.78Q80.12 8.15 80.02 8.76Q79.93 9.37 78.48 10.14L78.48 10.14Q78.33 9.80 78.26 9.47Q78.19 9.14 78.17 8.64Z"></path></g><!----><g data-v-423bf9ae="" id="9105011e-c891-48eb-8a8d-e455056a40c2" transform="matrix(6.703354332316094,0,0,6.703354332316094,186.02148273617067,-14.672767067061734)" stroke="none" fill="black"><path d="M16.469 2.222h-1.927a.527.527 0 00-.531.521v.667L3.016 7.44v-.27a.79.79 0 00-.797-.781H.797A.79.79 0 000 7.17v4.688c0 .429.358.781.797.781h1.422a.792.792 0 00.797-.781v-.331l1.034.189a3.506 3.506 0 00-.038.491c0 1.897 1.561 3.441 3.479 3.441a3.438 3.438 0 003.38-2.682l3.14.576v.659c0 .287.239.521.531.521h1.927a.527.527 0 00.531-.521V2.743a.527.527 0 00-.531-.521zM7.491 14.648c-1.367 0-2.479-1.095-2.479-2.441 0-.104.027-.205.04-.308l4.84.888a2.449 2.449 0 01-2.401 1.861zM16 13.722h-.989v-1.013L2.016 10.326v1.312H1v-4.25h1.016v1.484l12.995-4.763v-.887H16v10.5z"></path></g><!----></svg>